<?xml version="1.0" encoding="utf-8"?>
<!-- Generator: Adobe Illustrator 26.0.1, SVG Export Plug-In . SVG Version: 6.00 Build 0)  -->
<svg version="1.1"
	 id="svg1944" sodipodi:docname="iste_logo_hollow_pink.svg" xmlns:cc="http://creativecommons.org/ns#" xmlns:dc="http://purl.org/dc/elements/1.1/" xmlns:inkscape="http://www.inkscape.org/namespaces/inkscape" xmlns:rdf="http://www.w3.org/1999/02/22-rdf-syntax-ns#" xmlns:sodipodi="http://sodipodi.sourceforge.net/DTD/sodipodi-0.dtd" xmlns:svg="http://www.w3.org/2000/svg"
	 xmlns="http://www.w3.org/2000/svg" xmlns:xlink="http://www.w3.org/1999/xlink" x="0px" y="0px" viewBox="0 0 103.4 103.4"
	 style="enable-background:new 0 0 103.4 103.4;" xml:space="preserve">
<style type="text/css">
	.st0{fill:#FF0000;}
	.st1{fill:#231F20;}
	.st2{fill:none;stroke:#231F20;stroke-width:3;stroke-linecap:round;stroke-miterlimit:11.3386;}
</style>
<sodipodi:namedview  bordercolor="#666666" borderopacity="1.0" id="base" inkscape:current-layer="layer1" inkscape:cx="93.571428" inkscape:cy="60.178571" inkscape:document-units="mm" inkscape:pageopacity="0.0" inkscape:pageshadow="2" inkscape:window-height="1034" inkscape:window-maximized="1" inkscape:window-width="1920" inkscape:window-x="0" inkscape:window-y="46" inkscape:zoom="2.8" pagecolor="#ffffff" showgrid="false">
	</sodipodi:namedview>
<g id="layer1" transform="translate(-133.70931,-116.23312)" inkscape:groupmode="layer" inkscape:label="Layer 1">
	
		<ellipse id="use17636" inkscape:export-filename="/home/sanu/Pictures/Orion/Orion Art.png" inkscape:export-xdpi="300" inkscape:export-ydpi="300" inkscape:tile-x0="12.079064" inkscape:tile-y0="11.522966" class="st0" cx="184.8" cy="163.5" rx="0.2" ry="0.2">
	</ellipse>
	<g id="text1473" transform="matrix(-0.92118691,0.42991202,-0.42991202,-0.92118691,382.03542,39.90697)">
		<path id="path1871" inkscape:connector-curvature="0" class="st1" d="M249.2-46.3l0.5,0.7l-2.9,2.4l-0.5-0.7L249.2-46.3z"/>
		<path id="path1873" inkscape:connector-curvature="0" class="st1" d="M252.4-41.8l-3.1,2l-0.4-0.6l0.9-2.8l-1.8,1.2l-0.5-0.7
			l3.1-2l0.4,0.6l-0.9,2.8l1.9-1.2L252.4-41.8z"/>
		<path id="path1875" inkscape:connector-curvature="0" class="st1" d="M253.2-40.3l0.7,1.6c0.1,0.4,0.2,0.7,0.2,1s-0.1,0.7-0.3,0.9
			s-0.5,0.5-0.8,0.6c-0.3,0.1-0.7,0.2-1,0.1c-0.3-0.1-0.6-0.2-0.9-0.5c-0.3-0.2-0.5-0.5-0.6-0.9l-0.7-1.6L253.2-40.3z M251-37.7
			c0.1,0.3,0.3,0.6,0.6,0.7c0.3,0.1,0.6,0.1,0.9,0c0.3-0.1,0.5-0.3,0.7-0.7c0.1-0.3,0.1-0.6-0.1-0.9l-0.3-0.7l-2.2,0.9L251-37.7z"/>
		<path id="path1877" inkscape:connector-curvature="0" class="st1" d="M254.9-35.7l0.2,0.9l-3.6,0.9l-0.2-0.9L254.9-35.7z"/>
		<path id="path1879" inkscape:connector-curvature="0" class="st1" d="M252.8-30.8l-0.3-1.7l-0.9-0.2l-0.1-0.9l3.9,1.2l0.1,0.9
			l-3.5,2.1l-0.1-0.9L252.8-30.8z M253.4-31.2l1.3-0.8l-1.5-0.4L253.4-31.2z"/>
		<path id="path1881" inkscape:connector-curvature="0" class="st1" d="M255.7-25.5l-3.7-0.2l0.1-0.7l2.4-1.8l-2.2-0.1l0.1-0.9
			L256-29l-0.1,0.7l-2.4,1.7l2.2,0.1L255.7-25.5z"/>
		<path id="path1883" inkscape:connector-curvature="0" class="st1" d="M251.1-22.2c0.1-0.3,0.2-0.5,0.3-0.8
			c0.1-0.3,0.3-0.4,0.5-0.5l0.5,0.5c-0.1,0.1-0.3,0.3-0.4,0.5c-0.1,0.2-0.2,0.4-0.3,0.6c-0.1,0.3-0.1,0.4-0.1,0.5
			c0.1,0.1,0.1,0.2,0.3,0.3c0.1,0,0.2,0,0.3-0.1c0.1-0.1,0.1-0.1,0.2-0.2c0.1-0.1,0.1-0.2,0.3-0.4c0.1-0.3,0.3-0.5,0.4-0.6
			c0.1-0.1,0.3-0.3,0.5-0.4c0.2-0.1,0.4-0.1,0.7,0c0.2,0.1,0.4,0.2,0.5,0.3c0.1,0.1,0.2,0.4,0.3,0.6c0.1,0.3,0,0.5-0.1,0.9
			c-0.1,0.2-0.1,0.5-0.3,0.7c-0.1,0.2-0.3,0.4-0.4,0.5l-0.5-0.5c0.3-0.3,0.5-0.6,0.6-0.9c0.1-0.3,0.1-0.4,0.1-0.5
			c-0.1-0.1-0.1-0.2-0.3-0.3c-0.1-0.1-0.3,0-0.3,0.1s-0.2,0.3-0.3,0.5c-0.1,0.3-0.3,0.5-0.4,0.6c-0.1,0.1-0.3,0.3-0.5,0.3
			c-0.2,0.1-0.4,0.1-0.6,0c-0.2-0.1-0.4-0.2-0.5-0.3c-0.1-0.1-0.2-0.4-0.3-0.7C251-21.6,251.1-21.8,251.1-22.2L251.1-22.2z"/>
		<path id="path1885" inkscape:connector-curvature="0" class="st1" d="M249.7-18.5c0.2-0.3,0.4-0.7,0.7-0.9s0.6-0.3,0.9-0.4
			c0.3,0,0.7,0.1,1,0.2c0.3,0.1,0.6,0.4,0.8,0.7c0.2,0.3,0.3,0.6,0.3,1c0,0.3-0.1,0.7-0.2,1c-0.2,0.3-0.4,0.7-0.7,0.9
			c-0.3,0.2-0.6,0.3-0.9,0.3c-0.3,0.1-0.7,0-1-0.2c-0.3-0.1-0.6-0.4-0.8-0.7c-0.2-0.3-0.3-0.6-0.3-1
			C249.5-17.8,249.6-18.2,249.7-18.5L249.7-18.5z M250.4-18.2c-0.1,0.2-0.1,0.4-0.1,0.6s0.1,0.4,0.2,0.5c0.1,0.2,0.3,0.3,0.5,0.4
			c0.2,0.1,0.4,0.1,0.6,0.1s0.4-0.1,0.5-0.2c0.2-0.1,0.3-0.3,0.4-0.5s0.1-0.4,0.1-0.6c0-0.2-0.1-0.4-0.2-0.6
			c-0.1-0.2-0.3-0.3-0.5-0.4c-0.2-0.1-0.4-0.1-0.6-0.1s-0.4,0.1-0.6,0.2C250.7-18.6,250.5-18.4,250.4-18.2L250.4-18.2z"/>
		<path id="path1887" inkscape:connector-curvature="0" class="st1" d="M247.5-14.7c0.2-0.3,0.5-0.5,0.8-0.7c0.3-0.1,0.7-0.2,1-0.2
			s0.7,0.1,1,0.4c0.3,0.2,0.5,0.5,0.7,0.8c0.1,0.3,0.2,0.7,0.1,1c-0.1,0.3-0.2,0.7-0.4,1c-0.2,0.3-0.4,0.5-0.7,0.6
			c-0.3,0.1-0.5,0.3-0.8,0.3l-0.1-0.7c0.4-0.1,0.7-0.2,0.9-0.5c0.1-0.2,0.2-0.4,0.3-0.6c0-0.2,0-0.4-0.1-0.6
			c-0.1-0.2-0.2-0.3-0.4-0.5c-0.2-0.1-0.4-0.2-0.6-0.3c-0.2,0-0.4,0-0.6,0.1s-0.3,0.2-0.5,0.4c-0.2,0.3-0.3,0.7-0.2,1l-0.7,0.1
			c-0.1-0.3-0.1-0.5,0-0.9C247.1-14.2,247.3-14.4,247.5-14.7L247.5-14.7z"/>
		<path id="path1889" inkscape:connector-curvature="0" class="st1" d="M248.9-10.5l-0.6,0.7l-2.8-2.5l0.6-0.7L248.9-10.5z"/>
		<path id="path1891" inkscape:connector-curvature="0" class="st1" d="M243.3-9.3l-0.5-0.5l2.2-1.9l2.4,2.8l-2.1,1.8l-0.5-0.5
			l1.5-1.3l-0.5-0.6l-1.3,1.1l-0.5-0.5l1.3-1.1l-0.6-0.7L243.3-9.3z"/>
		<path id="path1893" inkscape:connector-curvature="0" class="st1" d="M243.3-6.5l1-0.7l0.4,0.6l-2.8,1.8l-0.4-0.6l1-0.7l-1.6-2.6
			l0.7-0.5L243.3-6.5z"/>
		<path id="path1895" inkscape:connector-curvature="0" class="st1" d="M238.5-5.8L238-7l0.8-0.3l0.5,1.2l2.3,1.6l-0.9,0.4l-1.6-1.1
			l-0.2,1.9L238.2-3L238.5-5.8z"/>
		<path id="path1897" inkscape:connector-curvature="0" class="st1" d="M234.6-2.8l-0.2-1l-1.7,0.4L232.6-4l1.7-0.4L234-5.7l0.9-0.2
			l0.8,3.6l-2.8,0.6l-0.1-0.7L234.6-2.8z"/>
		<path id="path1899" inkscape:connector-curvature="0" class="st1" d="M229.7-5.2c0.4,0,0.7,0.1,1,0.2s0.6,0.4,0.8,0.7
			c0.2,0.3,0.3,0.6,0.3,1c0,0.4-0.1,0.7-0.2,1c-0.1,0.3-0.4,0.5-0.7,0.7s-0.7,0.3-1,0.3c-0.4,0.1-0.7-0.1-1-0.2
			c-0.3-0.1-0.6-0.4-0.8-0.7c-0.2-0.3-0.3-0.6-0.3-1c0-0.4,0.1-0.7,0.2-1c0.1-0.3,0.4-0.5,0.7-0.7S229.4-5.2,229.7-5.2z M229.8-4.5
			c-0.2,0-0.4,0.1-0.6,0.2c-0.2,0.1-0.3,0.3-0.4,0.5c-0.1,0.2-0.1,0.4-0.1,0.6c0,0.3,0.1,0.5,0.2,0.6c0.1,0.2,0.3,0.3,0.5,0.4
			c0.2,0.1,0.4,0.1,0.6,0.1c0.2,0,0.4-0.1,0.6-0.2c0.2-0.1,0.3-0.3,0.4-0.5c0.1-0.2,0.1-0.4,0.1-0.6c0-0.3-0.1-0.5-0.2-0.6
			c-0.1-0.2-0.3-0.3-0.5-0.4C230.2-4.4,230-4.5,229.8-4.5L229.8-4.5z"/>
		<path id="path1901" inkscape:connector-curvature="0" class="st1" d="M224.7-5.4l0.6,1.1h0.1l0.7,0.1l0.1-1l0.9,0.1l-0.5,3.7
			l-1.6-0.2c-0.3-0.1-0.6-0.1-0.9-0.3c-0.2-0.1-0.4-0.3-0.5-0.5c-0.1-0.2-0.1-0.5-0.1-0.7c0.1-0.3,0.1-0.5,0.3-0.7
			c0.1-0.2,0.4-0.3,0.6-0.4l-0.7-1.3L224.7-5.4z M224.4-3c0,0.2,0,0.4,0.1,0.5c0.1,0.1,0.3,0.2,0.6,0.3l0.7,0.1l0.2-1.3l-0.7-0.1
			c-0.3-0.1-0.5,0-0.6,0.1C224.5-3.4,224.5-3.2,224.4-3L224.4-3z"/>
		<path id="path1903" inkscape:connector-curvature="0" class="st1" d="M220-3.5l1.1,0.4l-0.3,0.7l-3-1.1l0.3-0.7l1.1,0.4l1-2.8
			l0.8,0.3L220-3.5z"/>
		<path id="path1905" inkscape:connector-curvature="0" class="st1" d="M215.8-8l0.3-0.6l2.6,1.4L216.9-4l-2.5-1.3l0.3-0.6l1.7,0.9
			l0.4-0.7l-1.5-0.8l0.3-0.6l1.5,0.8l0.4-0.8L215.8-8z"/>
		<path id="path1907" inkscape:connector-curvature="0" class="st1" d="M214.2-10.1c0.3,0.3,0.5,0.5,0.7,0.8c0.1,0.3,0.2,0.7,0.1,1
			c-0.1,0.3-0.2,0.7-0.4,0.9c-0.2,0.3-0.5,0.5-0.8,0.7c-0.3,0.1-0.7,0.1-1,0.1c-0.3-0.1-0.7-0.2-1-0.5c-0.3-0.2-0.5-0.4-0.6-0.7
			C211.1-8,211-8.3,211-8.6l0.7-0.1c0,0.4,0.2,0.7,0.5,0.9c0.2,0.1,0.4,0.2,0.6,0.3c0.2,0,0.4,0,0.6-0.1s0.3-0.2,0.5-0.4
			c0.1-0.2,0.2-0.4,0.3-0.6c0-0.2,0-0.4-0.1-0.6c-0.1-0.2-0.2-0.3-0.4-0.5c-0.3-0.2-0.7-0.3-1-0.2l-0.1-0.7c0.3-0.1,0.5-0.1,0.9,0
			C213.7-10.5,214-10.3,214.2-10.1L214.2-10.1z"/>
		<path id="path1909" inkscape:connector-curvature="0" class="st1" d="M207.5-11.4l2.8-2.5l0.6,0.7l-1.1,1l1.1,1.2l1.1-1l0.6,0.7
			l-2.8,2.5l-0.6-0.7l1-1l-1.1-1.2l-1,1L207.5-11.4z"/>
		<path id="path1911" inkscape:connector-curvature="0" class="st1" d="M204.7-15.5l3.1-2l0.4,0.6l-0.9,2.8l1.9-1.2l0.5,0.7l-3.1,2
			l-0.4-0.6L207-16l-1.9,1.2L204.7-15.5z"/>
		<path id="path1913" inkscape:connector-curvature="0" class="st1" d="M204.2-16.7l-0.4-0.8l3.3-1.6l0.4,0.8L204.2-16.7z"/>
		<path id="path1915" inkscape:connector-curvature="0" class="st1" d="M206.3-21.6c0.1,0.3,0.1,0.7,0.1,1c-0.1,0.3-0.2,0.7-0.5,0.9
			c-0.2,0.3-0.5,0.5-0.9,0.5s-0.7,0.1-1,0.1c-0.3-0.1-0.7-0.3-0.9-0.5c-0.3-0.3-0.5-0.5-0.6-0.9c-0.1-0.3-0.1-0.6-0.1-0.9
			c0-0.3,0.1-0.5,0.3-0.8l0.7,0.4c-0.2,0.3-0.3,0.7-0.1,1c0.1,0.2,0.2,0.4,0.3,0.5s0.3,0.3,0.5,0.3c0.2,0.1,0.4,0,0.7-0.1
			c0.2-0.1,0.4-0.2,0.5-0.3c0.1-0.1,0.3-0.3,0.3-0.5c0.1-0.2,0-0.4-0.1-0.7c-0.1-0.3-0.3-0.6-0.7-0.7l0.3-0.7
			c0.3,0.1,0.5,0.3,0.7,0.5C206-22.2,206.2-21.9,206.3-21.6L206.3-21.6z"/>
		<path id="path1917" inkscape:connector-curvature="0" class="st1" d="M204.5-25.8l0.3,1.7l0.9,0.2l0.1,0.9l-3.9-1.1l-0.1-0.9
			l3.4-2.2l0.1,0.9L204.5-25.8z M203.9-25.5l-1.3,0.8l1.5,0.4L203.9-25.5z"/>
		<path id="path1919" inkscape:connector-curvature="0" class="st1" d="M201.4-27.6v-0.9h3v-1.8h0.7v2.8L201.4-27.6z"/>
		<path id="path1921" inkscape:connector-curvature="0" class="st1" d="M205.3-35.2l0.7,0.1l-0.6,2.8l-3.6-0.8l0.6-2.8l0.7,0.1
			l-0.4,1.9l0.8,0.2l0.4-1.7l0.7,0.1l-0.4,1.7l0.9,0.2L205.3-35.2z"/>
		<path id="path1923" inkscape:connector-curvature="0" class="st1" d="M202.8-37.2l0.7-1.6c0.1-0.4,0.3-0.7,0.6-0.9
			c0.3-0.3,0.5-0.4,0.9-0.5s0.7,0,1,0.1c0.3,0.1,0.6,0.3,0.8,0.6c0.2,0.3,0.3,0.6,0.3,0.9s-0.1,0.7-0.2,1l-0.7,1.6L202.8-37.2z
			 M206.2-37.6c0.1-0.3,0.1-0.7,0.1-0.9c-0.1-0.3-0.3-0.5-0.7-0.7c-0.3-0.1-0.7-0.1-0.9,0c-0.3,0.1-0.5,0.3-0.7,0.7l-0.3,0.7
			l2.2,0.9L206.2-37.6z"/>
		<path id="path1925" inkscape:connector-curvature="0" class="st1" d="M208.9-41.2c-0.3,0.5-0.7,0.7-1,0.8s-0.9,0-1.3-0.3l-1.8-1.1
			l0.5-0.7l1.7,1.1c0.6,0.3,1,0.3,1.3-0.1c0.1-0.2,0.2-0.5,0.1-0.7c-0.1-0.2-0.3-0.4-0.5-0.6l-1.7-1.1l0.5-0.7l1.8,1.1
			c0.5,0.3,0.7,0.7,0.9,1C209.3-42,209.1-41.6,208.9-41.2L208.9-41.2z"/>
		<path id="path1927" inkscape:connector-curvature="0" class="st1" d="M211.5-44.5c-0.3,0.3-0.5,0.5-0.9,0.6
			c-0.3,0.1-0.7,0.1-1,0.1s-0.7-0.2-0.9-0.5c-0.3-0.3-0.5-0.5-0.5-0.9c-0.1-0.3-0.1-0.7,0-1c0.1-0.3,0.3-0.7,0.5-0.9
			c0.2-0.3,0.5-0.4,0.7-0.5c0.3-0.1,0.5-0.2,0.8-0.1v0.7c-0.4,0-0.7,0.1-1,0.4c-0.1,0.2-0.3,0.3-0.3,0.6c-0.1,0.2-0.1,0.4,0,0.6
			c0.1,0.2,0.2,0.4,0.3,0.5c0.2,0.1,0.3,0.3,0.5,0.3c0.2,0.1,0.4,0.1,0.6,0c0.2-0.1,0.4-0.2,0.5-0.3c0.3-0.3,0.3-0.6,0.3-1L212-46
			c0.1,0.3,0,0.5-0.1,0.9C211.9-45,211.7-44.8,211.5-44.5L211.5-44.5z"/>
		<path id="path1929" inkscape:connector-curvature="0" class="st1" d="M214.3-48.2l-1.4,1l0.3,0.9l-0.7,0.5l-1-3.9l0.7-0.5l3.6,1.9
			l-0.7,0.6L214.3-48.2z M213.7-48.5l-1.4-0.7l0.4,1.5L213.7-48.5z"/>
		<path id="path1931" inkscape:connector-curvature="0" class="st1" d="M215.2-51.4l-1,0.6l-0.3-0.6l2.8-1.6l0.3,0.6l-1,0.6l1.5,2.6
			l-0.7,0.5L215.2-51.4z"/>
		<path id="path1933" inkscape:connector-curvature="0" class="st1" d="M217.4-53.4l0.8-0.3l1.5,3.4l-0.8,0.3L217.4-53.4z"/>
		<path id="path1935" inkscape:connector-curvature="0" class="st1" d="M222.2-51.1c-0.4,0.1-0.7,0.1-1,0.1
			c-0.3-0.1-0.7-0.2-0.9-0.5s-0.4-0.5-0.5-0.9c-0.1-0.3-0.1-0.7,0-1c0.1-0.3,0.3-0.6,0.5-0.9c0.3-0.3,0.6-0.4,0.9-0.5
			c0.3-0.1,0.7-0.1,1-0.1c0.3,0.1,0.7,0.3,0.9,0.5c0.3,0.3,0.4,0.5,0.5,0.9c0.1,0.3,0.1,0.7,0,1c-0.1,0.3-0.3,0.6-0.5,0.9
			C222.9-51.4,222.6-51.2,222.2-51.1L222.2-51.1z M222-51.8c0.2-0.1,0.4-0.1,0.5-0.3c0.1-0.1,0.3-0.3,0.3-0.5c0.1-0.2,0.1-0.4,0-0.7
			s-0.2-0.4-0.3-0.5c-0.1-0.1-0.3-0.3-0.5-0.3c-0.2-0.1-0.4-0.1-0.6,0s-0.4,0.1-0.5,0.3c-0.1,0.1-0.3,0.3-0.3,0.5
			c-0.1,0.2-0.1,0.4,0,0.7c0.1,0.2,0.2,0.4,0.3,0.5c0.1,0.1,0.3,0.3,0.5,0.3C221.6-51.7,221.8-51.7,222-51.8L222-51.8z"/>
		<path id="path1937" inkscape:connector-curvature="0" class="st1" d="M227.8-55.8l0.3,3.7l-0.7,0.1l-2-2.1l0.2,2.2l-0.9,0.1
			l-0.3-3.7l0.7-0.1l2,2.1l-0.2-2.2L227.8-55.8z"/>
	</g>
	<path id="path2053" inkscape:connector-curvature="0" class="st1" d="M187.9,142.9L187.9,142.9L187.9,142.9L187.9,142.9
		L187.9,142.9z"/>
	<ellipse id="circle1825" class="st2" cx="183.7" cy="164.6" rx="31.9" ry="31.9"/>
	<path id="path2055" class="st1" d="M183.7,144.9c-4.5,0-8.2,3.7-8.2,8.2l0,0c0,4.5,3.7,8.2,8.2,8.2l0,0c4.5,0,8.2-3.7,8.2-8.2
		C191.9,148.7,188.3,144.9,183.7,144.9L183.7,144.9z M181.1,151.1c0.3,0,0.5,0,0.7,0.1c0.3,0.1,0.5,0.1,0.6,0.3l-0.3,0.7
		c-0.3-0.2-0.7-0.3-1-0.3c-0.3,0-0.5,0.1-0.5,0.1c-0.1,0.1-0.2,0.2-0.2,0.3c0,0.1,0.1,0.3,0.2,0.3c0.1,0.1,0.3,0.1,0.7,0.2
		c0.3,0.1,0.5,0.1,0.7,0.2s0.3,0.2,0.5,0.3c0.1,0.1,0.2,0.3,0.2,0.6c0,0.2-0.1,0.4-0.2,0.6c-0.1,0.2-0.3,0.3-0.5,0.5
		c-0.3,0.1-0.5,0.1-0.9,0.1c-0.3,0-0.6-0.1-0.9-0.1c-0.3-0.1-0.5-0.2-0.7-0.3l0.3-0.7c0.2,0.1,0.4,0.2,0.6,0.3
		c0.2,0.1,0.5,0.1,0.7,0.1c0.3,0,0.5-0.1,0.6-0.1c0.1-0.1,0.2-0.2,0.2-0.3c0-0.1-0.1-0.2-0.1-0.2c-0.1-0.1-0.1-0.1-0.3-0.1
		c-0.1-0.1-0.3-0.1-0.5-0.1c-0.3-0.1-0.5-0.1-0.7-0.2c-0.2-0.1-0.3-0.2-0.5-0.3c-0.1-0.1-0.2-0.3-0.2-0.6c0-0.2,0.1-0.4,0.2-0.6
		c0.1-0.2,0.3-0.3,0.5-0.5C180.5,151.2,180.7,151.1,181.1,151.1z M177.9,151.2h0.9v3.9h-0.9V151.2z M182.8,151.2h3.3v0.7h-1.2v3.1
		h-0.9v-3.1h-1.2L182.8,151.2L182.8,151.2z M186.6,151.2h2.9v0.7h-2v0.9h1.8v0.7h-1.8v0.9h2.1v0.7h-3V151.2z"/>
	<path id="path2051" inkscape:connector-curvature="0" class="st1" d="M187.7,144.1c1.1,0.5,2.1,1.2,3,2c1.9,1.9,2.9,4.5,2.9,7.1
		c0,2.7-1,5.2-2.9,7.1c-0.3,0.3-0.5,0.5-0.9,0.7c1.2-0.5,2.4-0.7,3.7-0.7c2.7,0,5.2,1,7.1,2.9c1.9,1.9,2.9,4.5,2.9,7.1
		c0,0.1,0,0.3,0,0.3c0.7-2,1-4.1,1-6.2C204.6,154.6,197.5,146,187.7,144.1L187.7,144.1z"/>
	<path id="path2049" inkscape:connector-curvature="0" class="st1" d="M179.2,144.3c-9.5,2.2-16.2,10.5-16.2,20.3
		c0,2.1,0.3,4.3,1,6.3c0-0.1,0-0.3,0-0.5c0-2.7,1-5.2,2.9-7.1c1.9-1.9,4.5-2.9,7.1-2.9c1,0,2,0.1,2.9,0.5c-0.1-0.1-0.3-0.2-0.3-0.3
		c-1.9-1.9-2.9-4.5-2.9-7.1c0-2.7,1-5.2,2.9-7.1C177.3,145.4,178.2,144.7,179.2,144.3L179.2,144.3z"/>
	<path id="path2116" class="st1" d="M193.6,162.2c-4.5,0-8.2,3.7-8.2,8.2l0,0c0,4.5,3.7,8.2,8.2,8.2l0,0c4.5,0,8.2-3.7,8.2-8.2
		C201.7,165.9,198.1,162.2,193.6,162.2L193.6,162.2z M193.2,163.8h0.7l0.3,1.1c0.3,0,0.5,0.1,0.7,0.1l0.6-1l0.7,0.3l-0.1,1.1
		c0.2,0.1,0.5,0.3,0.7,0.4l0.9-0.7l0.5,0.5l-0.5,1c0.2,0.2,0.3,0.4,0.5,0.6l1.1-0.3l0.3,0.6l-0.9,0.8c0.1,0.3,0.2,0.5,0.3,0.7
		l1.1,0.1l0.1,0.7l-1,0.5c0,0.1,0,0.3,0,0.4s0,0.3,0,0.4l1,0.5L200,172l-1.1,0.1c-0.1,0.3-0.1,0.5-0.3,0.7l0.9,0.8l-0.3,0.6
		l-1.1-0.3c-0.1,0.2-0.3,0.4-0.5,0.6l0.5,1l-0.5,0.5l-0.9-0.7c-0.2,0.1-0.5,0.3-0.7,0.4l0.1,1.1l-0.7,0.3l-0.6-1
		c-0.3,0.1-0.5,0.1-0.7,0.1l-0.3,1.1h-0.7l-0.3-1.1c-0.3,0-0.5-0.1-0.7-0.1l-0.6,1l-0.7-0.3l0.1-1.1c-0.2-0.1-0.5-0.3-0.7-0.4
		l-0.9,0.7l-0.5-0.5l0.5-1c-0.2-0.2-0.3-0.4-0.5-0.6l-1.1,0.3l-0.3-0.6l0.9-0.8c-0.1-0.3-0.2-0.5-0.3-0.7l-1.1-0.1l-0.1-0.7l1-0.5
		c0-0.1,0-0.3,0-0.4c0-0.1,0-0.3,0-0.4l-1-0.5l0.1-0.7l1.1-0.1c0.1-0.3,0.1-0.5,0.3-0.7l-0.9-0.8l0.3-0.6l1.1,0.3
		c0.1-0.2,0.3-0.4,0.5-0.6l-0.5-1l0.5-0.5l0.9,0.7c0.2-0.1,0.5-0.3,0.7-0.4l-0.1-1.1l0.7-0.3l0.6,1c0.3-0.1,0.5-0.1,0.7-0.1
		L193.2,163.8z M193.6,166.2c-2.4,0-4.2,1.9-4.2,4.2l0,0c0,2.4,1.9,4.2,4.2,4.2c2.4,0,4.2-1.9,4.2-4.2
		C197.8,168.1,195.9,166.2,193.6,166.2L193.6,166.2z M193.6,167.1c1.8,0,3.3,1.5,3.3,3.3c0,1.8-1.5,3.3-3.3,3.3
		c-1.8,0-3.3-1.5-3.3-3.3C190.2,168.6,191.7,167.1,193.6,167.1L193.6,167.1z"/>
	<path id="path2033" inkscape:connector-curvature="0" class="st1" d="M187.3,162.6c-1.2,0.5-2.4,0.7-3.7,0.7c-1,0-2-0.1-2.9-0.5
		c0.1,0.1,0.3,0.2,0.3,0.3c1.4,1.4,2.3,3.1,2.8,5c0.4-1.8,1.4-3.6,2.7-4.9C186.7,163.1,186.9,162.8,187.3,162.6z"/>
	<path id="path1823" inkscape:connector-curvature="0" class="st1" d="M183.7,172.5c-0.4,1.8-1.4,3.6-2.7,4.9
		c-1.9,1.9-4.5,2.9-7.1,2.9c-1.9,0-3.7-0.5-5.3-1.5c3.9,4.1,9.4,6.5,15.1,6.5c5.6,0,10.9-2.2,14.8-6.2c-1.5,0.9-3.2,1.3-5,1.3
		c-2.7,0-5.2-1-7.1-2.9C185,176.2,184.1,174.4,183.7,172.5L183.7,172.5z"/>
	<path id="path2109" class="st1" d="M173.9,162.2c-4.5,0-8.2,3.7-8.2,8.2l0,0c0,4.5,3.7,8.2,8.2,8.2l0,0c4.5,0,8.2-3.7,8.2-8.2
		C182.1,165.9,178.4,162.2,173.9,162.2z M174.3,165c-0.1,2.9,0.3,2.2,0.5,3.6c0,1-0.1,1.6-0.9,2.4c0.9,1,2,1.5,3.3,1.5
		c1.1,0,2.2-0.5,3-1.2c-0.5,3.2-3.2,5.6-6.4,5.6c-3.3,0-6-2.4-6.4-5.7c0.9,0.9,2,1.4,3.2,1.4c1.3,0,2.5-0.6,3.3-1.5
		c-0.7-0.8-1-1.8-1-2.8C172.9,167.1,173.6,165.8,174.3,165z"/>
</g>
</svg>
